<svg width="207" height="55" viewBox="0 0 207 55" fill="none" xmlns="http://www.w3.org/2000/svg">
<path d="M2.11364 23V5.54545H4.22727V13.3182H13.5341V5.54545H15.6477V23H13.5341V15.1932H4.22727V23H2.11364ZM27.8565 17.6477V9.90909H29.8679V23H27.8565V20.7841H27.7202C27.4134 21.4489 26.9361 22.0142 26.2884 22.4801C25.6406 22.9403 24.8224 23.1705 23.8338 23.1705C23.0156 23.1705 22.2884 22.9915 21.652 22.6335C21.0156 22.2699 20.5156 21.7244 20.152 20.9972C19.7884 20.2642 19.6065 19.3409 19.6065 18.2273V9.90909H21.6179V18.0909C21.6179 19.0455 21.8849 19.8068 22.419 20.375C22.9588 20.9432 23.6463 21.2273 24.4815 21.2273C24.9815 21.2273 25.4901 21.0994 26.0071 20.8438C26.5298 20.5881 26.9673 20.196 27.3196 19.6676C27.6776 19.1392 27.8565 18.4659 27.8565 17.6477ZM33.5518 23V9.90909H35.5632V23H33.5518ZM34.5746 7.72727C34.1825 7.72727 33.8445 7.59375 33.5604 7.3267C33.282 7.05966 33.1428 6.73864 33.1428 6.36364C33.1428 5.98864 33.282 5.66761 33.5604 5.40057C33.8445 5.13352 34.1825 5 34.5746 5C34.9666 5 35.3018 5.13352 35.5803 5.40057C35.8643 5.66761 36.0064 5.98864 36.0064 6.36364C36.0064 6.73864 35.8643 7.05966 35.5803 7.3267C35.3018 7.59375 34.9666 7.72727 34.5746 7.72727ZM48.5199 12.8409L46.7131 13.3523C46.5994 13.0511 46.4318 12.7585 46.2102 12.4744C45.9943 12.1847 45.6989 11.946 45.3239 11.7585C44.9489 11.571 44.4688 11.4773 43.8835 11.4773C43.0824 11.4773 42.4148 11.6619 41.8807 12.0312C41.3523 12.3949 41.0881 12.858 41.0881 13.4205C41.0881 13.9205 41.2699 14.3153 41.6335 14.6051C41.9972 14.8949 42.5653 15.1364 43.3381 15.3295L45.2812 15.8068C46.4517 16.0909 47.3239 16.5256 47.8977 17.1108C48.4716 17.6903 48.7585 18.4375 48.7585 19.3523C48.7585 20.1023 48.5426 20.7727 48.1108 21.3636C47.6847 21.9545 47.0881 22.4205 46.321 22.7614C45.554 23.1023 44.6619 23.2727 43.6449 23.2727C42.3097 23.2727 41.2045 22.983 40.3295 22.4034C39.4545 21.8239 38.9006 20.9773 38.6676 19.8636L40.5767 19.3864C40.7585 20.0909 41.1023 20.6193 41.608 20.9716C42.1193 21.3239 42.7869 21.5 43.6108 21.5C44.5483 21.5 45.2926 21.3011 45.8438 20.9034C46.4006 20.5 46.679 20.017 46.679 19.4545C46.679 19 46.5199 18.6193 46.2017 18.3125C45.8835 18 45.3949 17.767 44.7358 17.6136L42.554 17.1023C41.3551 16.8182 40.4744 16.3778 39.9119 15.7812C39.3551 15.179 39.0767 14.4261 39.0767 13.5227C39.0767 12.7841 39.2841 12.1307 39.6989 11.5625C40.1193 10.9943 40.6903 10.5483 41.4119 10.2244C42.1392 9.90057 42.9631 9.73864 43.8835 9.73864C45.179 9.73864 46.196 10.0227 46.9347 10.5909C47.679 11.1591 48.2074 11.9091 48.5199 12.8409ZM58.8089 23V5.54545H60.9226V13.3182H70.2294V5.54545H72.343V23H70.2294V15.1932H60.9226V23H58.8089ZM81.62 23.2727C80.4382 23.2727 79.4013 22.9915 78.5092 22.429C77.6229 21.8665 76.9297 21.0795 76.4297 20.0682C75.9354 19.0568 75.6882 17.875 75.6882 16.5227C75.6882 15.1591 75.9354 13.9687 76.4297 12.9517C76.9297 11.9347 77.6229 11.1449 78.5092 10.5824C79.4013 10.0199 80.4382 9.73864 81.62 9.73864C82.8018 9.73864 83.8359 10.0199 84.7223 10.5824C85.6143 11.1449 86.3075 11.9347 86.8018 12.9517C87.3018 13.9687 87.5518 15.1591 87.5518 16.5227C87.5518 17.875 87.3018 19.0568 86.8018 20.0682C86.3075 21.0795 85.6143 21.8665 84.7223 22.429C83.8359 22.9915 82.8018 23.2727 81.62 23.2727ZM81.62 21.4659C82.5178 21.4659 83.2564 21.2358 83.8359 20.7756C84.4155 20.3153 84.8445 19.7102 85.1229 18.9602C85.4013 18.2102 85.5405 17.3977 85.5405 16.5227C85.5405 15.6477 85.4013 14.8324 85.1229 14.0767C84.8445 13.321 84.4155 12.7102 83.8359 12.2443C83.2564 11.7784 82.5178 11.5455 81.62 11.5455C80.7223 11.5455 79.9837 11.7784 79.4041 12.2443C78.8246 12.7102 78.3956 13.321 78.1172 14.0767C77.8388 14.8324 77.6996 15.6477 77.6996 16.5227C77.6996 17.3977 77.8388 18.2102 78.1172 18.9602C78.3956 19.7102 78.8246 20.3153 79.4041 20.7756C79.9837 21.2358 80.7223 21.4659 81.62 21.4659ZM98.8722 17.6477V9.90909H100.884V23H98.8722V20.7841H98.7358C98.429 21.4489 97.9517 22.0142 97.304 22.4801C96.6563 22.9403 95.8381 23.1705 94.8494 23.1705C94.0312 23.1705 93.304 22.9915 92.6676 22.6335C92.0313 22.2699 91.5313 21.7244 91.1676 20.9972C90.804 20.2642 90.6222 19.3409 90.6222 18.2273V9.90909H92.6335V18.0909C92.6335 19.0455 92.9006 19.8068 93.4347 20.375C93.9744 20.9432 94.6619 21.2273 95.4972 21.2273C95.9972 21.2273 96.5057 21.0994 97.0227 20.8438C97.5455 20.5881 97.983 20.196 98.3352 19.6676C98.6932 19.1392 98.8722 18.4659 98.8722 17.6477ZM109.511 23.2727C108.42 23.2727 107.457 22.9972 106.621 22.446C105.786 21.8892 105.133 21.1051 104.661 20.0938C104.19 19.0767 103.954 17.875 103.954 16.4886C103.954 15.1136 104.19 13.9205 104.661 12.9091C105.133 11.8977 105.789 11.1165 106.63 10.5653C107.471 10.0142 108.442 9.73864 109.545 9.73864C110.397 9.73864 111.07 9.88068 111.565 10.1648C112.065 10.4432 112.445 10.7614 112.707 11.1193C112.974 11.4716 113.181 11.7614 113.329 11.9886H113.499V5.54545H115.511V23H113.567V20.9886H113.329C113.181 21.2273 112.971 21.5284 112.698 21.892C112.425 22.25 112.036 22.571 111.531 22.8551C111.025 23.1335 110.352 23.2727 109.511 23.2727ZM109.783 21.4659C110.59 21.4659 111.272 21.2557 111.829 20.8352C112.386 20.4091 112.809 19.821 113.099 19.071C113.388 18.3153 113.533 17.4432 113.533 16.4545C113.533 15.4773 113.391 14.6222 113.107 13.8892C112.823 13.1506 112.403 12.5767 111.846 12.1676C111.289 11.7528 110.602 11.5455 109.783 11.5455C108.931 11.5455 108.221 11.7642 107.653 12.2017C107.09 12.6335 106.667 13.2216 106.383 13.9659C106.104 14.7045 105.965 15.5341 105.965 16.4545C105.965 17.3864 106.107 18.233 106.391 18.9943C106.681 19.75 107.107 20.3523 107.67 20.8011C108.238 21.2443 108.942 21.4659 109.783 21.4659ZM125.542 7.42045V5.54545H138.633V7.42045H133.144V23H131.031V7.42045H125.542ZM145.042 23.2727C143.86 23.2727 142.823 22.9915 141.931 22.429C141.045 21.8665 140.352 21.0795 139.852 20.0682C139.357 19.0568 139.11 17.875 139.11 16.5227C139.11 15.1591 139.357 13.9687 139.852 12.9517C140.352 11.9347 141.045 11.1449 141.931 10.5824C142.823 10.0199 143.86 9.73864 145.042 9.73864C146.224 9.73864 147.258 10.0199 148.144 10.5824C149.036 11.1449 149.729 11.9347 150.224 12.9517C150.724 13.9687 150.974 15.1591 150.974 16.5227C150.974 17.875 150.724 19.0568 150.224 20.0682C149.729 21.0795 149.036 21.8665 148.144 22.429C147.258 22.9915 146.224 23.2727 145.042 23.2727ZM145.042 21.4659C145.94 21.4659 146.678 21.2358 147.258 20.7756C147.837 20.3153 148.266 19.7102 148.545 18.9602C148.823 18.2102 148.962 17.3977 148.962 16.5227C148.962 15.6477 148.823 14.8324 148.545 14.0767C148.266 13.321 147.837 12.7102 147.258 12.2443C146.678 11.7784 145.94 11.5455 145.042 11.5455C144.144 11.5455 143.406 11.7784 142.826 12.2443C142.246 12.7102 141.817 13.321 141.539 14.0767C141.261 14.8324 141.121 15.6477 141.121 16.5227C141.121 17.3977 141.261 18.2102 141.539 18.9602C141.817 19.7102 142.246 20.3153 142.826 20.7756C143.406 21.2358 144.144 21.4659 145.042 21.4659ZM159.362 23.2727C158.18 23.2727 157.143 22.9915 156.251 22.429C155.365 21.8665 154.672 21.0795 154.172 20.0682C153.678 19.0568 153.43 17.875 153.43 16.5227C153.43 15.1591 153.678 13.9687 154.172 12.9517C154.672 11.9347 155.365 11.1449 156.251 10.5824C157.143 10.0199 158.18 9.73864 159.362 9.73864C160.544 9.73864 161.578 10.0199 162.464 10.5824C163.357 11.1449 164.05 11.9347 164.544 12.9517C165.044 13.9687 165.294 15.1591 165.294 16.5227C165.294 17.875 165.044 19.0568 164.544 20.0682C164.05 21.0795 163.357 21.8665 162.464 22.429C161.578 22.9915 160.544 23.2727 159.362 23.2727ZM159.362 21.4659C160.26 21.4659 160.999 21.2358 161.578 20.7756C162.158 20.3153 162.587 19.7102 162.865 18.9602C163.143 18.2102 163.283 17.3977 163.283 16.5227C163.283 15.6477 163.143 14.8324 162.865 14.0767C162.587 13.321 162.158 12.7102 161.578 12.2443C160.999 11.7784 160.26 11.5455 159.362 11.5455C158.464 11.5455 157.726 11.7784 157.146 12.2443C156.567 12.7102 156.138 13.321 155.859 14.0767C155.581 14.8324 155.442 15.6477 155.442 16.5227C155.442 17.3977 155.581 18.2102 155.859 18.9602C156.138 19.7102 156.567 20.3153 157.146 20.7756C157.726 21.2358 158.464 21.4659 159.362 21.4659ZM170.376 5.54545V23H168.364V5.54545H170.376ZM183.332 12.8409L181.526 13.3523C181.412 13.0511 181.244 12.7585 181.023 12.4744C180.807 12.1847 180.511 11.946 180.136 11.7585C179.761 11.571 179.281 11.4773 178.696 11.4773C177.895 11.4773 177.227 11.6619 176.693 12.0312C176.165 12.3949 175.901 12.858 175.901 13.4205C175.901 13.9205 176.082 14.3153 176.446 14.6051C176.81 14.8949 177.378 15.1364 178.151 15.3295L180.094 15.8068C181.264 16.0909 182.136 16.5256 182.71 17.1108C183.284 17.6903 183.571 18.4375 183.571 19.3523C183.571 20.1023 183.355 20.7727 182.923 21.3636C182.497 21.9545 181.901 22.4205 181.134 22.7614C180.366 23.1023 179.474 23.2727 178.457 23.2727C177.122 23.2727 176.017 22.983 175.142 22.4034C174.267 21.8239 173.713 20.9773 173.48 19.8636L175.389 19.3864C175.571 20.0909 175.915 20.6193 176.42 20.9716C176.932 21.3239 177.599 21.5 178.423 21.5C179.361 21.5 180.105 21.3011 180.656 20.9034C181.213 20.5 181.491 20.017 181.491 19.4545C181.491 19 181.332 18.6193 181.014 18.3125C180.696 18 180.207 17.767 179.548 17.6136L177.366 17.1023C176.168 16.8182 175.287 16.3778 174.724 15.7812C174.168 15.179 173.889 14.4261 173.889 13.5227C173.889 12.7841 174.097 12.1307 174.511 11.5625C174.932 10.9943 175.503 10.5483 176.224 10.2244C176.952 9.90057 177.776 9.73864 178.696 9.73864C179.991 9.73864 181.009 10.0227 181.747 10.5909C182.491 11.1591 183.02 11.9091 183.332 12.8409Z" fill="#17BC6A"/>
<path d="M101.744 31.6097L101.641 32.884L96.5691 32.4748L96.672 31.2006L101.744 31.6097ZM98.3393 28.9752L99.8429 29.0965L99.0903 38.4241C99.0561 38.8489 99.092 39.1724 99.198 39.3947C99.3086 39.6131 99.4587 39.7663 99.6483 39.8543C99.8424 39.9384 100.05 39.9893 100.271 40.0071C100.436 40.0205 100.573 40.023 100.681 40.0146C100.789 40.0019 100.875 39.9917 100.94 39.9841L101.136 41.3595C101.031 41.3895 100.886 41.4163 100.7 41.4398C100.514 41.4675 100.281 41.4701 100.001 41.4475C99.576 41.4132 99.1671 41.2883 98.774 41.0727C98.3853 40.8575 98.0721 40.5523 97.8347 40.1569C97.6015 39.7618 97.5079 39.2797 97.5538 38.7106L98.3393 28.9752ZM105.433 41.7575L103.241 31.7305L104.821 31.858L106.332 39.5214L106.434 39.5296L109.128 32.2055L110.734 32.3351L112.195 39.9688L112.297 39.9771L115.015 32.6805L116.595 32.808L112.824 42.3538L111.346 42.2345L109.811 34.5436L109.659 34.5313L106.911 41.8768L105.433 41.7575ZM121.547 43.2628C120.604 43.1868 119.808 42.913 119.157 42.4416C118.512 41.9662 118.034 41.3377 117.726 40.5561C117.421 39.7706 117.31 38.8766 117.39 37.8742C117.471 36.8717 117.725 36.003 118.152 35.2679C118.584 34.5289 119.146 33.9715 119.839 33.5956C120.537 33.2158 121.327 33.0615 122.211 33.1328C122.72 33.1739 123.217 33.2995 123.7 33.5095C124.183 33.7195 124.613 34.0321 124.99 34.4473C125.368 34.8582 125.652 35.3856 125.844 36.0296C126.036 36.6735 126.095 37.4521 126.021 38.3653L125.969 39.0024L118.426 38.3938L118.531 37.094L124.545 37.5793C124.59 37.0271 124.519 36.5255 124.333 36.0744C124.152 35.6237 123.869 35.2567 123.486 34.9736C123.107 34.6907 122.645 34.5274 122.102 34.4835C121.503 34.4352 120.973 34.5421 120.511 34.8041C120.054 35.0622 119.69 35.4176 119.418 35.8702C119.147 36.3229 118.989 36.8189 118.945 37.3583L118.876 38.2248C118.816 38.9639 118.893 39.6007 119.106 40.1352C119.324 40.6658 119.652 41.0835 120.089 41.3881C120.526 41.6884 121.049 41.8631 121.656 41.9121C122.051 41.944 122.412 41.9176 122.74 41.8328C123.072 41.7442 123.364 41.5967 123.616 41.3905C123.868 41.1799 124.071 40.9099 124.226 40.5804L125.646 41.1054C125.453 41.5857 125.161 41.9983 124.77 42.3429C124.379 42.6833 123.91 42.9362 123.362 43.1015C122.815 43.2625 122.21 43.3163 121.547 43.2628ZM131.99 44.1054C131.047 44.0293 130.25 43.7555 129.6 43.2841C128.954 42.8088 128.477 42.1803 128.168 41.3986C127.864 40.6131 127.752 39.7191 127.833 38.7167C127.914 37.7143 128.168 36.8455 128.595 36.1104C129.026 35.3714 129.589 34.814 130.282 34.4381C130.979 34.0583 131.77 33.9041 132.653 33.9753C133.163 34.0165 133.659 34.142 134.143 34.352C134.626 34.562 135.056 34.8746 135.433 35.2898C135.81 35.7007 136.095 36.2282 136.286 36.8721C136.478 37.516 136.537 38.2946 136.464 39.2078L136.412 39.8449L128.868 39.2363L128.973 37.9366L134.988 38.4218C135.032 37.8696 134.962 37.368 134.776 36.9169C134.594 36.4662 134.312 36.0993 133.928 35.8161C133.549 35.5333 133.088 35.3699 132.544 35.3261C131.945 35.2778 131.415 35.3846 130.954 35.6466C130.497 35.9048 130.132 36.2601 129.861 36.7128C129.589 37.1654 129.432 37.6614 129.388 38.2009L129.318 39.0674C129.259 39.8065 129.335 40.4433 129.549 40.9778C129.767 41.5084 130.094 41.926 130.531 42.2306C130.969 42.531 131.491 42.7056 132.099 42.7547C132.494 42.7865 132.855 42.7601 133.183 42.6754C133.515 42.5867 133.807 42.4393 134.058 42.233C134.31 42.0225 134.514 41.7525 134.669 41.4229L136.089 41.9479C135.896 42.4283 135.604 42.8408 135.213 43.1855C134.822 43.5259 134.353 43.7787 133.805 43.944C133.257 44.105 132.652 44.1588 131.99 44.1054ZM142.025 44.915C141.209 44.8492 140.506 44.5851 139.915 44.1227C139.324 43.6561 138.883 43.0305 138.591 42.246C138.3 41.4572 138.196 40.5447 138.28 39.5083C138.363 38.4804 138.611 37.6026 139.024 36.875C139.438 36.1473 139.976 35.6029 140.638 35.2416C141.3 34.8803 142.042 34.7329 142.866 34.7994C143.504 34.8508 143.998 34.9976 144.351 35.2398C144.708 35.4781 144.973 35.7389 145.147 36.0222C145.325 36.3017 145.463 36.5308 145.56 36.7097L145.687 36.7199L146.076 31.9032L147.579 32.0245L146.527 45.073L145.074 44.9558L145.195 43.4522L145.017 43.4378C144.892 43.6073 144.717 43.8197 144.491 44.0751C144.265 44.3263 143.955 44.5428 143.56 44.7246C143.165 44.9023 142.653 44.9657 142.025 44.915ZM142.338 43.5807C142.941 43.6294 143.463 43.5134 143.905 43.2326C144.347 42.9476 144.699 42.5336 144.96 41.9904C145.223 41.4429 145.384 40.7996 145.443 40.0606C145.502 39.33 145.448 38.6822 145.279 38.1171C145.112 37.5478 144.832 37.0934 144.44 36.754C144.049 36.4103 143.548 36.2138 142.936 36.1645C142.299 36.1131 141.755 36.2338 141.303 36.5266C140.857 36.8155 140.505 37.2296 140.248 37.7688C139.995 38.3042 139.841 38.916 139.785 39.6041C139.729 40.3007 139.784 40.9421 139.951 41.5285C140.122 42.1109 140.404 42.5868 140.798 42.9563C141.196 43.3219 141.709 43.53 142.338 43.5807ZM151.468 39.5463L150.993 45.4334L149.489 45.3121L150.542 32.2636L152.046 32.3849L151.659 37.1761L151.787 37.1864C152.057 36.6994 152.433 36.3258 152.916 36.0655C153.403 35.8013 154.031 35.7002 154.8 35.7622C155.467 35.816 156.04 35.9969 156.52 36.305C157 36.6087 157.356 37.0457 157.588 37.616C157.824 38.1823 157.908 38.8859 157.84 39.7269L157.339 45.9454L155.835 45.8241L156.329 39.7076C156.391 38.9303 156.238 38.313 155.869 37.8556C155.504 37.3944 154.967 37.1352 154.258 37.078C153.765 37.0382 153.315 37.1066 152.907 37.2832C152.504 37.4602 152.174 37.7392 151.916 38.1203C151.663 38.5018 151.514 38.9771 151.468 39.5463ZM162.951 46.629C162.331 46.579 161.777 46.4168 161.291 46.1424C160.804 45.8637 160.431 45.4894 160.169 45.0194C159.908 44.5452 159.804 43.9895 159.855 43.3524C159.9 42.7917 160.047 42.3461 160.296 42.0157C160.546 41.6809 160.863 41.4287 161.249 41.2588C161.634 41.089 162.054 40.9733 162.508 40.9115C162.966 40.8459 163.425 40.8017 163.885 40.7789C164.485 40.7505 164.972 40.732 165.345 40.7236C165.722 40.7113 166 40.6631 166.177 40.5791C166.359 40.4955 166.46 40.3326 166.48 40.0905L166.484 40.0395C166.534 39.4109 166.402 38.9085 166.086 38.5325C165.774 38.1568 165.272 37.941 164.58 37.8851C163.862 37.8272 163.287 37.939 162.853 38.2204C162.42 38.5018 162.106 38.8142 161.912 39.1577L160.526 38.5328C160.829 37.9587 161.206 37.5231 161.657 37.2261C162.114 36.9252 162.6 36.7292 163.116 36.6383C163.636 36.5435 164.143 36.516 164.636 36.5558C164.95 36.5811 165.308 36.6485 165.71 36.7578C166.116 36.8633 166.501 37.0461 166.865 37.3063C167.233 37.5669 167.525 37.9389 167.743 38.4225C167.96 38.906 168.038 39.5365 167.975 40.3138L167.455 46.7616L165.951 46.6402L166.058 45.315L165.982 45.3088C165.863 45.513 165.674 45.7265 165.417 45.9494C165.16 46.1724 164.826 46.3528 164.418 46.4909C164.009 46.6289 163.52 46.675 162.951 46.629ZM163.289 45.2968C163.884 45.3448 164.395 45.2684 164.821 45.0677C165.252 44.8673 165.586 44.5908 165.824 44.238C166.067 43.8856 166.204 43.5055 166.237 43.0978L166.348 41.7216C166.278 41.7929 166.132 41.8517 165.911 41.8979C165.693 41.9402 165.443 41.9734 165.159 41.9976C164.879 42.0178 164.606 42.0342 164.34 42.047C164.079 42.0558 163.866 42.0643 163.703 42.0725C163.308 42.092 162.936 42.1453 162.587 42.2326C162.243 42.3159 161.958 42.4618 161.731 42.6701C161.51 42.8745 161.383 43.1679 161.352 43.5502C161.31 44.0726 161.472 44.4832 161.837 44.782C162.206 45.0769 162.69 45.2485 163.289 45.2968ZM172.178 41.2172L171.703 47.1043L170.199 46.983L170.989 37.1966L172.442 37.3138L172.318 38.8429L172.446 38.8532C172.715 38.3748 173.096 38.0036 173.587 37.7397C174.079 37.4716 174.695 37.3673 175.434 37.427C176.096 37.4804 176.665 37.6631 177.14 37.9751C177.615 38.2828 177.969 38.7217 178.201 39.2919C178.433 39.8579 178.516 40.5571 178.449 41.3897L177.947 47.6081L176.443 47.4868L176.937 41.3703C176.999 40.6015 176.847 39.9865 176.483 39.5252C176.118 39.0598 175.588 38.7989 174.891 38.7427C174.411 38.704 173.974 38.7735 173.579 38.9511C173.189 39.1291 172.869 39.4089 172.62 39.7907C172.371 40.1725 172.224 40.648 172.178 41.2172ZM184.373 48.3318C183.558 48.266 182.855 48.0019 182.263 47.5395C181.673 47.0729 181.231 46.4473 180.94 45.6628C180.649 44.874 180.545 43.9615 180.628 42.9251C180.711 41.8971 180.96 41.0194 181.373 40.2918C181.787 39.5641 182.324 39.0197 182.986 38.6584C183.648 38.2971 184.391 38.1497 185.215 38.2162C185.852 38.2676 186.347 38.4144 186.7 38.6566C187.057 38.8949 187.322 39.1557 187.496 39.439C187.674 39.7185 187.812 39.9476 187.908 40.1264L188.036 40.1367L188.424 35.32L189.928 35.4413L188.875 48.4898L187.423 48.3726L187.544 46.869L187.366 46.8546C187.241 47.0241 187.065 47.2365 186.84 47.4919C186.614 47.743 186.304 47.9596 185.909 48.1414C185.514 48.3191 185.002 48.3825 184.373 48.3318ZM184.686 46.9975C185.289 47.0462 185.812 46.9302 186.253 46.6494C186.695 46.3644 187.047 45.9503 187.309 45.4071C187.571 44.8597 187.732 44.2164 187.792 43.4774C187.851 42.7468 187.796 42.099 187.628 41.5339C187.46 40.9646 187.181 40.5102 186.789 40.1708C186.398 39.8271 185.896 39.6306 185.285 39.5813C184.647 39.5299 184.103 39.6506 183.652 39.9434C183.206 40.2323 182.854 40.6463 182.596 41.1856C182.344 41.721 182.19 42.3328 182.134 43.0209C182.078 43.7175 182.133 44.3589 182.3 44.9452C182.471 45.5276 182.753 46.0036 183.146 46.3731C183.544 46.7387 184.058 46.9468 184.686 46.9975ZM199.383 41.6935L198.001 41.9668C197.934 41.7348 197.827 41.506 197.678 41.2802C197.534 41.0506 197.328 40.8544 197.059 40.6916C196.79 40.5288 196.436 40.4297 195.999 40.3944C195.4 40.3461 194.89 40.4439 194.468 40.6878C194.051 40.9277 193.826 41.258 193.792 41.6785C193.762 42.0523 193.874 42.3585 194.128 42.597C194.383 42.8356 194.793 43.0504 195.359 43.2414L196.783 43.7154C197.641 43.9984 198.266 44.3759 198.66 44.848C199.054 45.3159 199.224 45.8917 199.168 46.5756C199.123 47.1363 198.921 47.6245 198.563 48.0402C198.209 48.4562 197.735 48.7685 197.141 48.9771C196.547 49.1857 195.869 49.2593 195.109 49.198C194.111 49.1174 193.302 48.8342 192.683 48.3481C192.064 47.8621 191.701 47.1958 191.594 46.3492L193.05 46.1076C193.143 46.6453 193.368 47.061 193.725 47.3549C194.086 47.6491 194.575 47.821 195.191 47.8707C195.891 47.9272 196.46 47.8235 196.896 47.5594C197.336 47.2914 197.574 46.9471 197.608 46.5266C197.635 46.1868 197.539 45.8926 197.32 45.6441C197.101 45.3913 196.749 45.1877 196.266 45.0332L194.666 44.5193C193.787 44.2346 193.155 43.8523 192.77 43.3724C192.39 42.8886 192.228 42.309 192.282 41.6336C192.327 41.0815 192.521 40.6055 192.865 40.2058C193.214 39.8064 193.668 39.5074 194.227 39.3088C194.79 39.1105 195.416 39.0392 196.104 39.0947C197.072 39.1728 197.815 39.4465 198.333 39.9159C198.856 40.3855 199.205 40.9781 199.383 41.6935Z" fill="#695822"/>
</svg>
